<?xml version="1.0" encoding="utf-8"?>
<!-- Generator: Adobe Illustrator 16.0.0, SVG Export Plug-In . SVG Version: 6.00 Build 0)  -->
<!DOCTYPE svg PUBLIC "-//W3C//DTD SVG 1.1//EN" "http://www.w3.org/Graphics/SVG/1.1/DTD/svg11.dtd">
<svg version="1.1" id="Capa_1" xmlns="http://www.w3.org/2000/svg" xmlns:xlink="http://www.w3.org/1999/xlink" x="0px" y="0px"
	 width="612px" height="792px" viewBox="0 0 612 792" enable-background="new 0 0 612 792" xml:space="preserve">
<g>
	<g>
		<path fill="#FF7A19" d="M571.247,151.098h-203.66v-20.366c0-22.402-18.329-40.732-40.732-40.732H41.73
			c-22.403,0-40.732,18.33-40.732,40.732v224.027c0,112.014,106.922,112.014,142.563,112.014c6.109,0,10.183-4.073,10.183-10.184
			c0-6.109-4.073-10.183-10.183-10.183c-22.403,0-40.732-18.33-40.732-40.732c0-1.018,0-3.055,0-4.073
			c3.055-21.384,21.384-36.659,42.769-36.659h140.526v20.366h-91.647c-6.11,0-10.183,4.073-10.183,10.183
			c0,23.421,9.165,45.824,24.439,62.117c-3.055,10.183-4.073,19.348-4.073,29.53c0,40.732,24.439,77.392,61.098,93.685
			c0,6.109-3.055,18.329-30.549,18.329c-28.512,0-50.915,22.402-50.915,50.915v50.915h20.366v-50.915
			c0-16.293,12.219-29.53,28.512-30.549l49.897,24.439c4.073,2.036,9.165,4.073,13.238,5.091v51.934h20.366v-51.934
			c5.092-1.018,9.165-2.036,13.238-4.073l49.896-24.438c16.293,1.018,28.513,14.256,28.513,30.549V702h20.366v-50.915
			c0-28.513-22.403-50.915-50.916-50.915c-27.494,0-30.549-12.22-30.549-18.33c38.695-16.292,62.116-54.988,61.099-96.738
			c0-2.037,0-6.11,0-7.128c0-14.257-3.056-28.513-10.184-40.732h68.227c21.385,0,39.714,15.274,42.769,36.659
			c2.037,22.402-14.256,42.769-36.658,44.805c-1.019,0-3.056,0-4.073,0c-6.11,0-10.184,4.073-10.184,10.184
			c0,6.109,4.073,10.183,10.184,10.183c35.64,0,142.562,0,142.562-112.013V191.83C611.979,169.428,593.65,151.098,571.247,151.098z
			 M145.597,344.576c-31.567,0-59.062,23.421-63.135,54.989c-1.019,15.273,3.055,30.549,12.219,42.769
			c-49.896-10.184-73.318-37.677-73.318-87.574V130.732c0-11.201,9.165-20.366,20.366-20.366h285.125
			c11.202,0,20.366,9.165,20.366,20.366v193.478c0,11.202-9.164,20.366-20.366,20.366H145.597z M205.677,405.674h110.995
			c35.641,0,65.171,26.476,70.263,61.099H275.94C240.299,466.772,210.769,440.296,205.677,405.674z M333.983,563.511
			c-4.073,1.019-7.129,5.092-7.129,9.165v6.109c-1.018,14.257,7.129,28.513,20.366,34.622l-26.476,13.238
			c-9.165,4.073-20.366,4.073-29.531,0l-25.458-13.238c13.238-6.109,21.384-20.365,20.366-34.622v-5.091
			c0-4.074-3.055-8.146-7.128-9.165c-32.586-12.22-53.97-42.769-53.97-77.392c0-5.091,0-10.183,1.019-14.256
			c14.256,9.165,31.567,14.256,49.896,14.256h112.014C387.953,521.761,366.568,552.31,333.983,563.511z M591.613,426.04
			c0,49.896-23.421,77.391-73.317,87.574c9.165-12.22,13.237-27.494,12.22-42.769c-4.073-31.567-30.549-54.988-63.135-54.988
			h-82.482c-17.312-19.348-41.751-30.55-68.227-30.55h-10.184v-20.366h20.366c22.403,0,40.732-18.33,40.732-40.732V171.464h203.66
			c11.202,0,20.366,9.165,20.366,20.366V426.04L591.613,426.04z"/>
	</g>
</g>
<g>
	<g>
		<path fill="#FF7A19" d="M235.208,202.013h-10.183c-6.11,0-10.183-4.073-10.183-10.183v-30.549
			c0-17.311-13.238-30.549-30.549-30.549s-30.549,13.238-30.549,30.549v30.549c0,6.11-4.073,10.183-10.183,10.183
			c0-6.11-4.073-10.183-10.183-10.183H92.645c-6.11,0-10.183,4.073-10.183,10.183v112.013c0,6.11,4.073,10.183,10.183,10.183h40.732
			c6.11,0,10.183-4.073,10.183-10.183h91.647c17.311,0,30.549-13.238,30.549-30.549v-50.915
			C265.757,215.251,252.519,202.013,235.208,202.013z M123.194,303.844h-20.366v-91.647h20.366V303.844z M245.391,283.478
			c0,6.11-4.073,10.183-10.183,10.183h-91.647v-71.281c17.311,0,30.549-13.238,30.549-30.549v-30.549
			c0-6.11,4.073-10.183,10.183-10.183s10.183,4.073,10.183,10.183v30.549c0,17.312,13.238,30.549,30.549,30.549h10.183
			c6.11,0,10.183,4.073,10.183,10.183V283.478z"/>
	</g>
</g>
<g>
	<g>
		<path fill="#FF7A19" d="M561.064,191.83h-40.732c-6.109,0-10.183,4.073-10.183,10.183h-91.647
			c-17.311,0-30.549,13.238-30.549,30.549v50.915c0,17.311,13.238,30.549,30.549,30.549h10.184c6.109,0,10.183,4.073,10.183,10.183
			v30.549c0,17.311,13.238,30.549,30.549,30.549c17.312,0,30.55-13.238,30.55-30.549v-30.549c0-6.11,4.072-10.183,10.183-10.183
			c0,6.11,4.073,10.183,10.183,10.183h40.732c6.109,0,10.183-4.073,10.183-10.183V202.013
			C571.247,195.903,567.174,191.83,561.064,191.83z M510.149,293.661c-17.312,0-30.549,13.238-30.549,30.549v30.549
			c0,6.11-4.073,10.183-10.184,10.183c-6.109,0-10.183-4.073-10.183-10.183v-30.549c0-17.311-13.238-30.549-30.549-30.549h-10.184
			c-6.109,0-10.183-4.073-10.183-10.183v-50.915c0-6.11,4.073-10.183,10.183-10.183h91.647V293.661z M550.882,303.844h-20.366
			v-91.647h20.366V303.844z"/>
	</g>
</g>
<g>
	<g>
		<rect x="377.77" y="354.759" fill="#FF7A19" width="40.732" height="20.366"/>
	</g>
</g>
<g>
	<g>
		<polygon fill="#FF7A19" points="275.939,140.915 275.939,130.732 255.574,130.732 255.574,140.915 245.391,140.915 
			245.391,161.281 255.574,161.281 255.574,171.464 275.939,171.464 275.939,161.281 286.123,161.281 286.123,140.915 		"/>
	</g>
</g>
</svg>
