<?xml version="1.0" encoding="utf-8"?>
<!-- Generator: Adobe Illustrator 16.0.0, SVG Export Plug-In . SVG Version: 6.00 Build 0)  -->
<!DOCTYPE svg PUBLIC "-//W3C//DTD SVG 1.1//EN" "http://www.w3.org/Graphics/SVG/1.1/DTD/svg11.dtd">
<svg version="1.1" id="Capa_1" xmlns="http://www.w3.org/2000/svg" xmlns:xlink="http://www.w3.org/1999/xlink" x="0px" y="0px"
	 width="612px" height="792px" viewBox="0 0 612 792" enable-background="new 0 0 612 792" xml:space="preserve">
<g>
	<g>
		<path fill="#FFFFFF" d="M306,702c-28.152,0-55.284-3.672-81.396-11.016c-26.112-7.348-50.49-17.646-73.134-30.906
			c-22.644-13.26-43.248-29.172-61.812-47.736c-18.564-18.562-34.476-39.168-47.736-61.812
			c-13.26-22.646-23.562-47.022-30.906-73.136C3.672,451.284,0,424.152,0,396c0-28.152,3.672-55.284,11.016-81.396
			c7.344-26.112,17.646-50.49,30.906-73.134c13.26-22.644,29.172-43.248,47.736-61.812c18.564-18.564,39.168-34.476,61.812-47.736
			c22.644-13.26,47.022-23.562,73.134-30.906C250.716,93.672,277.848,90,306,90c42.024,0,81.702,8.058,119.034,24.174
			c37.332,16.116,69.768,37.944,97.308,65.484s49.368,59.976,65.484,97.308S612,353.976,612,396
			c0,28.152-3.672,55.284-11.016,81.396c-7.348,26.109-17.646,50.487-30.906,73.135c-13.26,22.644-29.172,43.248-47.736,61.812
			c-18.562,18.564-39.168,34.479-61.812,47.736c-22.646,13.26-47.022,23.562-73.137,30.906C361.284,698.328,334.152,702,306,702z
			 M453.492,269.928H163.404c-2.856,0-5.304,0.918-7.344,2.754s-3.06,4.386-3.06,7.65v32.436c0,1.632,0.612,2.448,1.836,2.448
			l152.388,86.904l1.228,0.612c0.813,0,1.428-0.205,1.836-0.612l147.492-86.904c0.813-0.408,1.428-0.612,1.836-0.612
			c0.404,0,1.02-0.204,1.836-0.612c1.632,0,2.448-0.816,2.448-2.448v-31.212c0-3.264-1.021-5.814-3.063-7.65
			S456.348,269.928,453.492,269.928z M245.412,400.284c0.408-0.408,0.612-1.021,0.612-1.836c0-1.228-0.408-1.837-1.224-1.837
			l-87.516-50.185c-1.224-0.408-2.244-0.408-3.06,0c-0.816,0-1.224,0.612-1.224,1.836v131.58c0,1.228,0.612,2.04,1.836,2.448h1.224
			c0.816,0,1.224-0.204,1.224-0.612L245.412,400.284z M351.9,410.076c-0.408-1.227-1.432-1.428-3.063-0.612l-33.66,19.584
			c-4.08,2.448-8.36,2.448-12.852,0l-29.376-16.521c-1.224-0.816-2.244-0.816-3.06,0l-111.996,104.04
			c-0.408,0.404-0.612,1.224-0.612,2.444c0,0.408,0.408,1.021,1.224,1.836c2.448,0.816,4.08,1.228,4.896,1.228H450.43
			c0.816,0,1.636-0.408,2.448-1.228c0-1.632-0.204-2.648-0.612-3.06L351.9,410.076z M462.06,343.98h-2.444l-83.232,49.572
			c-0.813,0-1.224,0.612-1.224,1.836c-0.408,0.408-0.204,1.02,0.608,1.833L459,487.188c0.816,0.815,1.428,1.227,1.836,1.227h1.224
			c1.228-1.227,1.84-2.04,1.84-2.448V346.429C463.896,345.612,463.284,344.796,462.06,343.98z"/>
	</g>
</g>
</svg>
