<?xml version="1.0" encoding="utf-8"?>
<!-- Generator: Adobe Illustrator 16.0.0, SVG Export Plug-In . SVG Version: 6.00 Build 0)  -->
<!DOCTYPE svg PUBLIC "-//W3C//DTD SVG 1.1//EN" "http://www.w3.org/Graphics/SVG/1.1/DTD/svg11.dtd">
<svg version="1.1" id="Layer_1" xmlns="http://www.w3.org/2000/svg" xmlns:xlink="http://www.w3.org/1999/xlink" x="0px" y="0px"
	 width="612px" height="792px" viewBox="0 0 612 792" enable-background="new 0 0 612 792" xml:space="preserve">
<path fill="#FFFFFF" d="M607,446.333v-302c0-22.237-18.029-40.267-40.267-40.267H43.267C21.03,104.066,3,122.096,3,144.333v302
	C3,468.57,21.03,486.6,43.267,486.6h10.067v191.267c0,5.56,4.507,10.067,10.066,10.067h201.333c5.559,0,10.066-4.508,10.066-10.067
	V486.6h160.713l123.951,123.951c9.831,9.826,25.763,9.826,35.587,0c9.826-9.826,9.826-25.757,0-35.587L506.688,486.6h60.046
	C588.971,486.6,607,468.57,607,446.333z M43.267,124.2h523.467c11.118,0,20.134,9.015,20.134,20.133V184.6H23.133v-40.267
	C23.133,133.215,32.148,124.2,43.267,124.2z M254.667,667.8h-181.2V396h181.2V667.8z M582.295,592.762
	c0.006,1.337-0.53,2.615-1.479,3.554c-1.967,1.967-5.152,1.967-7.117,0L399.307,421.924l7.116-7.117l174.403,174.392
	C581.77,590.147,582.301,591.425,582.295,592.762z M377.944,400.571l7.117-7.117l7.117,7.117l-7.117,7.117L377.944,400.571z
	 M392.179,372.092c-3.996-3.775-10.245-3.775-14.236,0l-21.361,21.363c-3.933,3.931-3.933,10.303,0,14.236l58.788,58.776H274.8
	v-80.533c0-5.56-4.507-10.067-10.066-10.067H63.4c-5.559,0-10.066,4.507-10.066,10.067v80.533H43.267
	c-11.119,0-20.133-9.015-20.133-20.134v-241.6h563.734v241.6c0,11.119-9.016,20.134-20.134,20.134h-80.18L392.179,372.092z"/>
<path fill="#FFFFFF" d="M43.267,144.333H63.4v20.133H43.267V144.333z"/>
<path fill="#FFFFFF" d="M73.467,144.333H93.6v20.133H73.467V144.333z"/>
<path fill="#FFFFFF" d="M103.667,144.333H123.8v20.133h-20.133V144.333z"/>
<path fill="#FFFFFF" d="M470.545,162.776l30.199,20.133l11.179-16.753L494.251,154.4l17.637-11.757l-11.173-16.753l-30.2,20.133
	c-2.797,1.868-4.483,5.009-4.483,8.376c0,3.367,1.687,6.508,4.483,8.375h0.03V162.776z"/>
<path fill="#FFFFFF" d="M542.122,182.909l30.2-20.133c2.797-1.868,4.478-5.009,4.478-8.376c0-3.367-1.681-6.508-4.478-8.375
	l-30.2-20.134l-11.179,16.753l17.672,11.756l-17.637,11.758L542.122,182.909z"/>
<path fill="#FFFFFF" d="M440.9,295.333c0-4.528-3.023-8.499-7.389-9.703c-26.911-7.432-30.844-11.364-38.256-38.255
	c-1.204-4.366-5.175-7.388-9.703-7.388c-4.526,0-8.498,3.022-9.703,7.388c-7.432,26.911-11.364,30.844-38.256,38.255
	c-4.365,1.204-7.387,5.175-7.387,9.703c0,4.527,3.021,8.499,7.387,9.703c26.913,7.432,30.845,11.364,38.256,38.256
	c1.205,4.365,5.177,7.387,9.703,7.387c4.528,0,8.499-3.022,9.703-7.387c7.432-26.912,11.369-30.844,38.256-38.256
	C437.877,303.832,440.9,299.861,440.9,295.333z M385.533,312.335c-3.962-7.152-9.851-13.04-17.002-17.002
	c7.151-3.961,13.039-9.851,17.002-17.002c3.962,7.152,9.851,13.04,17.002,17.002C395.384,299.294,389.495,305.184,385.533,312.335z"
	/>
<path fill="#FFFFFF" d="M498.945,356.097c-16.801-4.641-18.534-6.375-23.156-23.156c-1.204-4.365-5.175-7.387-9.703-7.387
	c-4.526,0-8.498,3.022-9.702,7.387c-4.641,16.802-6.374,18.536-23.155,23.156c-4.366,1.204-7.388,5.175-7.388,9.703
	c0,4.528,3.021,8.499,7.388,9.703c16.805,4.641,18.534,6.375,23.155,23.156c1.204,4.365,5.176,7.388,9.702,7.388
	c4.528,0,8.499-3.022,9.703-7.388c4.642-16.802,6.375-18.536,23.156-23.156c4.365-1.204,7.388-5.175,7.388-9.703
	C506.333,361.272,503.311,357.301,498.945,356.097z M466.066,371.227c-1.582-2.024-3.401-3.844-5.427-5.427
	c2.024-1.583,3.845-3.401,5.427-5.427c1.583,2.024,3.401,3.844,5.427,5.427C469.468,367.383,467.649,369.202,466.066,371.227z"/>
<path fill="#FFFFFF" d="M307.679,325.897c-16.801-4.641-18.535-6.375-23.155-23.156c-1.205-4.365-5.176-7.387-9.703-7.387
	c-4.528,0-8.499,3.022-9.703,7.387c-4.641,16.802-6.375,18.536-23.156,23.156c-4.365,1.205-7.387,5.175-7.387,9.703
	c0,4.527,3.022,8.499,7.387,9.703c16.805,4.641,18.535,6.375,23.156,23.156c1.205,4.365,5.175,7.387,9.703,7.387
	c4.527,0,8.499-3.022,9.703-7.387c4.641-16.802,6.375-18.536,23.155-23.156c4.365-1.204,7.388-5.175,7.388-9.703
	C315.066,331.072,312.044,327.102,307.679,325.897z M274.8,341.027c-1.583-2.025-3.401-3.845-5.427-5.427
	c2.024-1.583,3.844-3.401,5.427-5.427c1.583,2.024,3.401,3.844,5.427,5.427C278.201,337.183,276.383,339.001,274.8,341.027z"/>
<path fill="#FFFFFF" d="M335.2,255.066c0-4.527-3.023-8.499-7.388-9.703c-16.801-4.641-18.536-6.375-23.156-23.156
	c-1.205-4.365-5.176-7.388-9.703-7.388c-4.528,0-8.499,3.022-9.703,7.388c-4.641,16.801-6.375,18.535-23.156,23.156
	c-4.365,1.204-7.387,5.175-7.387,9.703c0,4.528,3.022,8.499,7.387,9.703c16.805,4.641,18.535,6.375,23.156,23.156
	c1.205,4.365,5.175,7.387,9.703,7.387c4.527,0,8.499-3.022,9.703-7.387c4.64-16.802,6.375-18.536,23.156-23.156
	C332.177,263.565,335.2,259.594,335.2,255.066z M294.933,260.494c-1.583-2.025-3.401-3.845-5.427-5.428
	c2.024-1.583,3.844-3.401,5.427-5.427c1.583,2.024,3.402,3.844,5.427,5.427C298.335,256.649,296.516,258.468,294.933,260.494z"/>
<path fill="#FFFFFF" d="M526.467,426.2H546.6v20.133h-20.133V426.2z"/>
<path fill="#FFFFFF" d="M556.667,396H576.8v20.134h-20.133V396z"/>
<path fill="#FFFFFF" d="M556.667,426.2H576.8v20.133h-20.133V426.2z"/>
<path fill="#FFFFFF" d="M103.667,496.667h120.8c5.559,0,10.066-4.508,10.066-10.067V426.2c0-5.56-4.507-10.066-10.066-10.066h-120.8
	c-5.559,0-10.066,4.507-10.066,10.066V486.6C93.6,492.159,98.107,496.667,103.667,496.667z M113.733,436.267H214.4v40.267H113.733
	V436.267z"/>
<path fill="#FFFFFF" d="M103.667,617.467h120.8c5.559,0,10.066-4.508,10.066-10.066V547c0-5.56-4.507-10.066-10.066-10.066h-120.8
	c-5.559,0-10.066,4.507-10.066,10.066v60.4C93.6,612.959,98.107,617.467,103.667,617.467z M113.733,557.066H214.4v40.267H113.733
	V557.066z"/>
<path fill="#FFFFFF" d="M93.6,506.733h50.333v20.133H93.6V506.733z"/>
<path fill="#FFFFFF" d="M154,506.733h80.533v20.133H154V506.733z"/>
<path fill="#FFFFFF" d="M93.6,627.533h70.467v20.134H93.6V627.533z"/>
<path fill="#FFFFFF" d="M174.133,627.533h60.4v20.134h-60.4V627.533z"/>
</svg>
