<?xml version="1.0" encoding="utf-8"?>
<!-- Generator: Adobe Illustrator 16.0.0, SVG Export Plug-In . SVG Version: 6.00 Build 0)  -->
<!DOCTYPE svg PUBLIC "-//W3C//DTD SVG 1.1//EN" "http://www.w3.org/Graphics/SVG/1.1/DTD/svg11.dtd">
<svg version="1.1" id="Camada_1" xmlns="http://www.w3.org/2000/svg" xmlns:xlink="http://www.w3.org/1999/xlink" x="0px" y="0px"
	 width="480px" height="480px" viewBox="0 0 480 480" enable-background="new 0 0 480 480" xml:space="preserve">
<path fill="#FF7A19" d="M480,272V32c0-17.672-14.328-32-32-32H32C14.328,0,0,14.328,0,32v240c0,17.672,14.328,32,32,32h8v152
	c0,4.418,3.582,8,8,8h160c4.418,0,8-3.582,8-8V304h127.719l98.504,98.504c7.813,7.809,20.473,7.809,28.281,0s7.809-20.469,0-28.281
	L400.281,304H448C465.672,304,480,289.672,480,272z M32,16h416c8.836,0,16,7.164,16,16v32H16V32C16,23.164,23.164,16,32,16z
	 M200,448H56V232h144V448z M460.367,388.367c0.004,1.063-0.422,2.078-1.176,2.824c-1.563,1.563-4.094,1.563-5.656,0l-138.59-138.59
	l5.656-5.656l138.598,138.59C459.949,386.289,460.371,387.305,460.367,388.367z M297.969,235.633l5.656-5.656l5.656,5.656
	l-5.656,5.656L297.969,235.633z M309.281,213c-3.176-3-8.141-3-11.313,0l-16.977,16.977c-3.125,3.125-3.125,8.188,0,11.313
	L327.711,288H216v-64c0-4.418-3.582-8-8-8H48c-4.418,0-8,3.582-8,8v64h-8c-8.836,0-16-7.164-16-16V80h448v192
	c0,8.836-7.164,16-16,16h-63.719L309.281,213z"/>
<path fill="#FF7A19" d="M32,32h16v16H32V32z"/>
<path fill="#FF7A19" d="M56,32h16v16H56V32z"/>
<path fill="#FF7A19" d="M80,32h16v16H80V32z"/>
<path fill="#FF7A19" d="M371.559,46.656l24,16l8.883-13.313L390.398,40l14.016-9.344l-8.879-13.313l-24,16
	c-2.223,1.484-3.563,3.98-3.563,6.656s1.34,5.172,3.563,6.656H371.559z"/>
<path fill="#FF7A19" d="M428.441,62.656l24-16C454.664,45.172,456,42.676,456,40s-1.336-5.172-3.559-6.656l-24-16l-8.883,13.313
	L433.602,40l-14.016,9.344L428.441,62.656z"/>
<path fill="#FF7A19" d="M348,152c0-3.598-2.402-6.754-5.871-7.711c-21.387-5.906-24.512-9.031-30.402-30.402
	c-0.957-3.469-4.113-5.871-7.711-5.871s-6.754,2.402-7.711,5.871c-5.906,21.387-9.031,24.512-30.402,30.402
	c-3.469,0.957-5.871,4.113-5.871,7.711s2.402,6.754,5.871,7.711c21.387,5.906,24.512,9.031,30.402,30.402
	c0.957,3.469,4.113,5.871,7.711,5.871s6.754-2.402,7.711-5.871c5.906-21.387,9.035-24.512,30.402-30.402
	C345.598,158.754,348,155.598,348,152z M304,165.512c-3.148-5.684-7.828-10.363-13.512-13.512
	c5.684-3.148,10.363-7.828,13.512-13.512c3.148,5.684,7.828,10.363,13.512,13.512C311.828,155.148,307.148,159.828,304,165.512z"/>
<path fill="#FF7A19" d="M394.129,200.289c-13.352-3.688-14.73-5.066-18.402-18.402c-0.957-3.469-4.113-5.871-7.711-5.871
	s-6.754,2.402-7.711,5.871c-3.688,13.352-5.066,14.73-18.402,18.402c-3.469,0.957-5.871,4.113-5.871,7.711s2.402,6.754,5.871,7.711
	c13.355,3.688,14.73,5.066,18.402,18.402c0.957,3.469,4.113,5.871,7.711,5.871s6.754-2.402,7.711-5.871
	c3.688-13.352,5.066-14.73,18.402-18.402c3.469-0.957,5.871-4.113,5.871-7.711S397.598,201.246,394.129,200.289z M368,212.313
	c-1.258-1.609-2.703-3.055-4.313-4.313c1.609-1.258,3.055-2.703,4.313-4.313c1.258,1.609,2.703,3.055,4.313,4.313
	C370.703,209.258,369.258,210.703,368,212.313z"/>
<path fill="#FF7A19" d="M242.129,176.289c-13.352-3.688-14.73-5.066-18.402-18.402c-0.957-3.469-4.113-5.871-7.711-5.871
	s-6.754,2.402-7.711,5.871c-3.688,13.352-5.066,14.73-18.402,18.402c-3.469,0.957-5.871,4.113-5.871,7.711s2.402,6.754,5.871,7.711
	c13.355,3.688,14.73,5.066,18.402,18.402c0.957,3.469,4.113,5.871,7.711,5.871s6.754-2.402,7.711-5.871
	c3.688-13.352,5.066-14.73,18.402-18.402c3.469-0.957,5.871-4.113,5.871-7.711S245.598,177.246,242.129,176.289z M216,188.313
	c-1.258-1.609-2.703-3.055-4.313-4.313c1.609-1.258,3.055-2.703,4.313-4.313c1.258,1.609,2.703,3.055,4.313,4.313
	C218.703,185.258,217.258,186.703,216,188.313z"/>
<path fill="#FF7A19" d="M264,120c0-3.598-2.402-6.754-5.871-7.711c-13.352-3.688-14.73-5.066-18.402-18.402
	c-0.957-3.469-4.113-5.871-7.711-5.871s-6.754,2.402-7.711,5.871c-3.688,13.352-5.066,14.73-18.402,18.402
	c-3.469,0.957-5.871,4.113-5.871,7.711s2.402,6.754,5.871,7.711c13.355,3.688,14.73,5.066,18.402,18.402
	c0.957,3.469,4.113,5.871,7.711,5.871s6.754-2.402,7.711-5.871c3.688-13.352,5.066-14.73,18.402-18.402
	C261.598,126.754,264,123.598,264,120z M232,124.313c-1.258-1.609-2.703-3.055-4.313-4.313c1.609-1.258,3.055-2.703,4.313-4.313
	c1.258,1.609,2.703,3.055,4.313,4.313C234.703,121.258,233.258,122.703,232,124.313z"/>
<path fill="#FF7A19" d="M416,256h16v16h-16V256z"/>
<path fill="#FF7A19" d="M440,232h16v16h-16V232z"/>
<path fill="#FF7A19" d="M440,256h16v16h-16V256z"/>
<path fill="#FF7A19" d="M80,312h96c4.418,0,8-3.582,8-8v-48c0-4.418-3.582-8-8-8H80c-4.418,0-8,3.582-8,8v48
	C72,308.418,75.582,312,80,312z M88,264h80v32H88V264z"/>
<path fill="#FF7A19" d="M80,408h96c4.418,0,8-3.582,8-8v-48c0-4.418-3.582-8-8-8H80c-4.418,0-8,3.582-8,8v48
	C72,404.418,75.582,408,80,408z M88,360h80v32H88V360z"/>
<path fill="#FF7A19" d="M72,320h40v16H72V320z"/>
<path fill="#FF7A19" d="M120,320h64v16h-64V320z"/>
<path fill="#FF7A19" d="M72,416h56v16H72V416z"/>
<path fill="#FF7A19" d="M136,416h48v16h-48V416z"/>
</svg>
