<?xml version="1.0" encoding="utf-8"?>
<!-- Generator: Adobe Illustrator 16.0.0, SVG Export Plug-In . SVG Version: 6.00 Build 0)  -->
<!DOCTYPE svg PUBLIC "-//W3C//DTD SVG 1.1//EN" "http://www.w3.org/Graphics/SVG/1.1/DTD/svg11.dtd">
<svg version="1.1" id="Layer_1" xmlns="http://www.w3.org/2000/svg" xmlns:xlink="http://www.w3.org/1999/xlink" x="0px" y="0px"
	 width="612px" height="792px" viewBox="0 0 612 792" enable-background="new 0 0 612 792" xml:space="preserve">
<g>
	<g>
		<g>
			<path fill="#FF7A19" d="M575.152,90.187l-57.38,42.951l-57.706,134.542h-46.404l-18.221-39.484h11.905
				c21.775,0,39.484-17.521,39.484-39.296v-39.673h19.742V90h-59.227v59.225h19.742v39.673c0,10.878-8.854,19.554-19.742,19.554
				h-21.016L361.1,153.866l30.226-15.064l-98.967-42.387l-23.267,81.426c-0.632-48.446-40.185-87.663-88.78-87.663
				c-48.989,0-88.838,39.85-88.838,88.838c0,29.604,14.993,57.37,39.485,73.785v14.875h-23.907l-1.54,8.095
				c-4.797,24.885-5.242,50.461-1.322,75.968l-67.34,120.031l74.367,16.988v124.402h98.709V702h236.904V564.448
				c69.096-48.881,108.56-127.473,108.502-211.318l0.021-36.008c0-13.574-1.254-27.52-3.781-41.261l-1.461-8.184h-19.378
				l44.421-106.418V90.187L575.152,90.187z M427.087,129.671v-19.743h19.742v19.743H427.087z M391.918,267.677h-37.441
				l-17.944-39.484h37.165L391.918,267.677z M305.171,123.413l39.238,16.812l-9.26,4.54l29.435,63.688h-37.025l-24.057-52.799
				l-8.834,4.461L305.171,123.413z M332.79,267.679h-43.896v-19.554c0-10.887,8.854-19.929,19.742-19.929h6.208v-0.002
				L332.79,267.679z M294.027,182.56L306,208.906c-20.532,1.383-36.848,18.341-36.848,39.217v19.554h-39.484v-14.875
				c19.752-13.238,33.156-33.896,37.677-56.905L294.027,182.56z M111.217,179.027c0-38.092,31.005-69.096,69.096-69.096
				c38.092,0,69.096,31.004,69.096,69.096c0,24.52-13.246,47.43-34.557,59.778l-4.925,2.842v26.029h-19.743v-60.864
				c11.461-4.086,19.743-14.946,19.743-27.798c0-16.326-13.288-29.613-29.614-29.613S150.7,162.69,150.7,179.017
				c0,12.852,8.281,23.71,19.742,27.798v60.864H150.7v-26.031l-4.925-2.853C124.463,226.447,111.217,203.545,111.217,179.027z
				 M180.313,188.898c-5.45,0-9.871-4.434-9.871-9.871c0-5.45,4.421-9.872,9.871-9.872s9.871,4.421,9.871,9.872
				C190.185,184.477,185.763,188.898,180.313,188.898z M533.495,287.421c1.433,9.869,2.153,19.879,2.153,29.611l0.021,36.079
				c0.06,79.077-38.961,153.127-104.238,198.07l-4.343,2.962V682.26H229.669v-88.839h-98.711V473.015l-63.974-14.6l57.784-103.023
				l-0.562-3.524c-3.671-21.597-3.878-44.706-0.69-64.446h7.442h98.709H533.495L533.495,287.421z M509.342,267.677h-27.807
				l49.207-114.721l21.884,10.897L509.342,267.677z M555.41,143.303l-10.918-5.458l10.918-8.173V143.303z"/>
			<path fill="#FF7A19" d="M200.056,346.646c-16.326,0-29.614-9.871-29.614-29.613H150.7c0,29.613,22.141,49.356,49.356,49.356
				c27.215,0,49.355-19.743,49.355-49.356h-19.742C229.667,336.775,216.382,346.646,200.056,346.646z"/>
		</g>
	</g>
</g>
</svg>
